<svg fill="none" height="184" viewBox="0 0 198 184" width="198" xmlns="http://www.w3.org/2000/svg" xmlns:xlink="http://www.w3.org/1999/xlink"><filter id="a" color-interpolation-filters="sRGB" filterUnits="userSpaceOnUse" height="184" width="198" x="0" y="0"><feFlood flood-opacity="0" result="BackgroundImageFix"/><feBlend in="SourceGraphic" in2="BackgroundImageFix" mode="normal" result="shape"/><feGaussianBlur result="effect1_foregroundBlur" stdDeviation="2.5"/></filter><g filter="url(#a)"><path d="m185.526 101.108c3.182-1.7284 7.173-9.1977 7.173-9.1977s-8.348-.7475-11.53.9867c-.313.1734-.567.4306-.862.6339.431-3.008.72-6.0639.838-9.1676 1.996.5442 4.871-.3708 6.955-2.2426 2.71-2.428 4.9-10.6208 4.9-10.6208s-8.289 1.2199-10.999 3.6479c-.336.299-.567.6757-.862 1.0166-.189-3.2173-.59-6.3749-1.121-9.4846 2.042.012 4.581-1.5489 6.181-3.8154 2.09-2.9841 2.385-11.464 2.385-11.464s-7.805 3.0858-9.895 6.0699c-.218.311-.336.6698-.519 1.0047-.679-2.4459-1.488-4.838-2.385-7.1882 2.042-.3409 4.292-2.3682 5.419-4.9457 1.488-3.3369.166-11.7152.166-11.7152s-7.073 4.5569-8.549 7.8939c-.171.3767-.23.7834-.348 1.1781-1.258-2.5177-2.645-4.9636-4.139-7.3258 1.854-.7834 3.619-3.0678 4.31-5.6572.956-3.5343-1.636-11.5956-1.636-11.5956s-6.281 5.6154-7.232 9.1497c-.124.4485-.124.9149-.177 1.3754-1.942-2.4937-4.009-4.8798-6.211-7.1344 1.683-1.1541 2.94-3.8572 3.041-6.5961.13-3.6539-4.204-10.9139-4.204-10.9139s-4.853 6.9251-4.994 10.579c-.012.4186 0 .8432.047 1.2558-1.812-1.5189-3.678-2.9721-5.615-4.3356-.525-1.806-1.954-3.72569-3.92-4.92771-3.087-1.88377-11.459-1.56084-11.459-1.56084s3.613 7.64865 6.713 9.53845c1.369.8372 2.928 1.2558 4.38 1.3515 1.476 1.0166 2.94 2.0692 4.34 3.1875-3.767.4066-9.96 4.1861-9.96 4.1861s6.825 4.9097 10.438 5.0473c2.769.1016 5.567-1.0226 6.777-2.7031 1.488 1.513 2.893 3.1097 4.263 4.7423-3.802-.3827-10.485 1.8061-10.485 1.8061s5.538 6.3569 9.033 7.3197c2.721.7476 5.726.2512 7.255-1.1781 1.11 1.7283 2.132 3.4984 3.094 5.3164-3.601-1.1123-10.898.0479-10.898.0479s4.492 7.1583 7.787 8.6533c2.456 1.1183 5.372 1.1721 7.137.1734.597 1.5609 1.134 3.1516 1.63 4.7603-3.289-1.8359-10.775-2.129-10.775-2.129s3.058 7.8999 6.004 10.0169c2.22 1.5967 5.113 2.2306 7.05 1.5548.366 2.123.649 4.2759.856 6.4586-2.929-2.4578-9.83-4.3655-9.83-4.3655s1.21 8.3962 3.613 11.1292c1.777 2.0332 4.404 3.2951 6.429 3.1216-.077 2.1768-.212 4.3416-.46 6.4766-2.126-3.1277-8.732-6.7816-8.732-6.7816s-.738 8.456.98 11.6734c1.376 2.5954 3.908 4.4612 6.028 4.4971-.467 1.8902-.963 3.7792-1.565 5.6152-1.511-3.397-8.058-8.091-8.058-8.091s-1.707 8.312-.366 11.709c.968 2.506 2.999 4.593 4.935 5.137-.791 1.693-1.6 3.361-2.503 4.976-.856-3.612-6.435-9.461-6.435-9.461s-3.206 7.84-2.527 11.434c.484 2.62 2.06 5.024 3.837 5.968-1.151 1.579-2.337 3.128-3.607 4.617-.059-3.69-4.534-10.68-4.534-10.68s-4.634 7.068-4.658 10.716c-.012 2.715 1.098 5.43 2.71 6.674-1.393 1.286-2.828 2.542-4.304 3.726.006-.072.03-.126.035-.198.431-3.63-3.282-11.242-3.282-11.242s-5.408 6.47-5.845 10.094c-.313 2.5.39 5.047 1.659 6.542-1.83 1.131-3.69 2.195-5.614 3.164.194-.526.366-1.065.472-1.621.691-3.594-2.48-11.446-2.48-11.446s-5.856 6.07-6.541 9.664c-.478 2.464.047 5.059 1.204 6.644-3.371 1.286-6.872 2.279-10.438 3.098-2.095-6.997-8.448-12.128-16.0342-12.128-7.5923 0-13.9388 5.119-16.0347 12.128-3.5658-.807-7.0668-1.812-10.4378-3.098 1.1571-1.59 1.6825-4.18 1.2043-6.644-.6848-3.6-6.5414-9.664-6.5414-9.664s-3.1762 7.852-2.4796 11.446c.1063.556.2775 1.095.4724 1.621-1.9247-.969-3.7903-2.033-5.6145-3.164 1.2575-1.495 1.9659-4.042 1.6589-6.542-.4369-3.624-5.8506-10.094-5.8506-10.094s-3.7076 7.6-3.2766 11.242c.0059.072.0295.126.0354.198-1.4819-1.184-2.9106-2.434-4.3039-3.726 1.6059-1.244 2.7217-3.965 2.704-6.674-.0177-3.66-4.6581-10.716-4.6581-10.716s-4.4692 6.99-4.5282 10.68c-1.2634-1.489-2.456-3.044-3.6072-4.617 1.777-.944 3.3474-3.348 3.8374-5.968.6849-3.606-2.5268-11.434-2.5268-11.434s-5.5791 5.855-6.4351 9.461c-.8974-1.621-1.7121-3.283-2.4973-4.976 1.9423-.55 3.9614-2.631 4.9356-5.137 1.3342-3.408-.372-11.709-.372-11.709s-6.5532 4.688-8.0645 8.091c-.6022-1.848-1.0982-3.725-1.5586-5.6152 2.1135-.0359 4.6462-1.9017 6.0218-4.4971 1.718-3.2233.9859-11.6734.9859-11.6734s-6.6181 3.6539-8.7376 6.7816c-.2479-2.129-.3837-4.2938-.4604-6.4766 2.019.1735 4.6521-1.0943 6.4292-3.1216 2.4028-2.733 3.6131-11.1292 3.6131-11.1292s-6.8956 1.9077-9.8298 4.3655c.1948-2.1767.4841-4.3356.856-6.4586 1.9306.6758 4.8293.0419 7.0491-1.5548 2.946-2.111 5.9983-10.0169 5.9983-10.0169s-7.486.2931-10.7744 2.129c.4959-1.6147 1.0391-3.1994 1.6353-4.7603 1.7712.9987 4.6876.9389 7.1318-.1734 3.3002-1.489 7.793-8.6533 7.793-8.6533s-7.3207-1.1423-10.9279-.0299c.9682-1.818 1.9955-3.5941 3.0995-5.3164 1.535 1.4233 4.54 1.9256 7.2616 1.1781 3.4892-.9628 9.0328-7.3198 9.0328-7.3198s-6.6949-2.1828-10.491-1.8c1.3638-1.6326 2.7689-3.2294 4.2566-4.7423 1.2162 1.6804 4.0205 2.7987 6.7835 2.703 3.6072-.1316 10.4379-5.0473 10.4379-5.0473s-6.1931-3.7795-9.9597-4.1861c1.4051-1.1183 2.8633-2.1649 4.3452-3.1815 1.4464-.0957 3.0109-.5143 4.3806-1.3515 3.0935-1.8898 6.7067-9.53844 6.7067-9.53844s-8.3657-.32892-11.4593 1.55485c-1.9659 1.19604-3.3947 3.12169-3.926 4.92169-1.9364 1.3635-3.802 2.8227-5.6086 4.3357.0354-.4187.0531-.8373.0413-1.2559-.1357-3.6599-4.9887-10.57896-4.9887-10.57896s-4.3451 7.25396-4.2093 10.91386c.1003 2.7389 1.3519 5.442 3.0345 6.5902-2.1962 2.2605-4.2625 4.6466-6.2049 7.1404-.059-.4605-.059-.927-.1771-1.3755-.9505-3.5343-7.2321-9.1497-7.2321-9.1497s-2.5977 8.0673-1.6413 11.5956c.6967 2.5954 2.4619 4.8799 4.3216 5.6633-1.4937 2.3621-2.8811 4.7961-4.1386 7.3257-.118-.3947-.1771-.8013-.3424-1.1781-1.4818-3.3369-8.5546-7.8939-8.5546-7.8939s-1.3224 8.3723.1654 11.7093c1.1394 2.5715 3.3887 4.6047 5.4196 4.9456-.8914 2.3443-1.7003 4.7363-2.3851 7.1822-.183-.3349-.3011-.6937-.5195-1.0046-2.09-2.9901-9.89478-6.0759-9.89478-6.0759s.29519 8.4799 2.39108 11.464c1.594 2.2605 4.1385 3.8274 6.1812 3.8154-.5431 3.1097-.9387 6.2672-1.1276 9.4846-.2893-.3409-.5313-.7176-.862-1.0166-2.7039-2.434-10.9928-3.642-10.9928-3.642s2.1844 8.1929 4.89423 10.6209c2.08407 1.8718 4.95917 2.7867 6.95467 2.2425.1181 3.1038.3955 6.1537.8383 9.1677-.2952-.2033-.5431-.4605-.8619-.6339-3.1822-1.7402-11.53011-.9868-11.53011-.9868s3.99096 7.4633 7.17311 9.2038c2.2788 1.238 5.0241 1.495 6.8602.747.5904 2.357 1.2634 4.659 2.0486 6.937-.2657-.137-.49-.335-.7675-.442-3.3593-1.346-11.55961.395-11.55961.395s4.82341 6.931 8.18851 8.27c2.6095 1.053 5.6441.891 7.3266-.335 1.0686 2.297 2.2199 4.539 3.4774 6.722-.2657-.078-.5373-.161-.8089-.209-3.5481-.688-11.288 2.559-11.288 2.559s6.016 5.909 9.57 6.596c2.7925.539 5.768-.215 7.1731-1.776 1.5173 2.099 3.1172 4.115 4.8175 6.07-.2302-.012-.4546-.048-.6848-.042-3.6131.024-10.5855 4.731-10.5855 4.731s7.0255 4.61 10.6386 4.598c2.7866-.024 5.5555-1.285 6.6831-3.038 1.6294 1.519 3.3002 2.979 5.0418 4.36-.1535.012-.307-.024-.4605-.006-3.5895.449-9.9715 5.938-9.9715 5.938s7.5037 3.762 11.0873 3.313c2.9696-.37 5.7444-2.152 6.4588-4.21 1.3933.873 2.763 1.8 4.2094 2.596-3.5482 1.495-8.3421 6.237-8.3421 6.237s7.7458 3.188 11.2881 2.476c2.8633-.562 5.4432-2.464 6.0986-4.497 4.2743 1.716 8.7317 3.062 13.313 4.042.6199 8.845 7.8284 15.842 16.7136 15.842 8.8849 0 16.0939-6.997 16.7139-15.842 4.581-.98 9.038-2.326 13.319-4.042.643 2.033 3.229 3.935 6.092 4.497 3.549.712 11.3-2.5 11.3-2.5s-4.794-4.742-8.342-6.237c1.447-.801 2.816-1.705 4.21-2.596.714 2.052 3.495 3.846 6.458 4.211 3.584.448 11.093-3.314 11.093-3.314s-6.387-5.489-9.971-5.944c-.148-.012-.307.024-.461.012 1.742-1.381 3.413-2.84 5.042-4.359 1.128 1.752 3.897 3.014 6.689 3.037 3.608.024 10.639-4.598 10.639-4.598s-6.972-4.707-10.586-4.731c-.23 0-.454.03-.684.042 1.7-1.937 3.3-3.971 4.817-6.07 1.405 1.561 4.381 2.321 7.173 1.776 3.554-.681 9.57-6.596 9.57-6.596s-7.74-3.247-11.288-2.565c-.271.054-.543.131-.809.215 1.258-2.171 2.409-4.413 3.478-6.722 1.676 1.226 4.711 1.382 7.326.335 3.365-1.339 8.189-8.276 8.189-8.276s-8.201-1.735-11.56-.389c-.277.119-.502.305-.767.442.785-2.266 1.452-4.586 2.048-6.937 1.819.754 4.558.497 6.843-.741z" fill="#6584f1" fill-opacity=".1"/></g></svg>