<svg fill="none" height="104" viewBox="0 0 112 104" width="112" xmlns="http://www.w3.org/2000/svg"><path d="m107.547 57.4438c1.896-1.033 4.274-5.4974 4.274-5.4974s-4.974-.4468-6.869.5898c-.187.1036-.338.2573-.514.3788.257-1.7979.429-3.6244.5-5.4795 1.188.3253 2.901-.2216 4.143-1.3404 1.614-1.4512 2.919-6.3481 2.919-6.3481s-4.938.7292-6.552 2.1804c-.201.1787-.338.4039-.514.6077-.112-1.9231-.352-3.8103-.668-5.669 1.217.0071 2.729-.9258 3.682-2.2805 1.245-1.7836 1.421-6.852 1.421-6.852s-4.649 1.8443-5.895 3.628c-.13.1858-.2.4003-.309.6005-.405-1.462-.886-2.8917-1.421-4.2964 1.217-.2038 2.557-1.4155 3.229-2.956.886-1.9946.098-7.0022.098-7.0022s-4.213 2.7236-5.0926 4.7181c-.102.2252-.1372.4683-.2075.7042-.7492-1.5048-1.5757-2.9668-2.4655-4.3786 1.1044-.4683 2.156-1.8337 2.5675-3.3814.5701-2.1124-.9743-6.9307-.9743-6.9307s-3.7422 3.3563-4.3085 5.4688c-.0738.2681-.0738.5469-.1055.8221-1.1571-1.4905-2.3881-2.9167-3.7-4.2642 1.0024-.68989 1.7515-2.3055 1.8113-3.94257.0774-2.18394-2.5042-6.52323-2.5042-6.52323s-2.8911 4.13913-2.9755 6.32307c-.007.2502 0 .50399.0281.75062-1.0797-.90789-2.1912-1.77647-3.3448-2.59142-.313-1.07947-1.1641-2.22684-2.3354-2.94529-1.8394-1.125927-6.8267-.932911-6.8267-.932911s2.1524 4.571621 3.999 5.701131c.8159.50041 1.7445.75062 2.6097.80781.8793.60764 1.7515 1.23673 2.5851 1.90514-2.244.24305-5.9334 2.50205-5.9334 2.50205s4.0658 2.9346 6.2183 3.0168c1.6495.0607 3.3166-.6112 4.0376-1.6156.8864.9043 1.7235 1.8586 2.5394 2.8344-2.265-.2287-6.2464 1.0795-6.2464 1.0795s3.2991 3.7996 5.3812 4.375c1.6214.4468 3.4116.1502 4.3226-.7041.6612 1.033 1.2697 2.091 1.843 3.1776-2.1455-.6648-6.4927.0286-6.4927.0286s2.6766 4.2785 4.6391 5.1721c1.4632.6684 3.2006.7006 4.2523.1037.3552.9329.6753 1.8837.9707 2.8452-1.9591-1.0974-6.4188-1.2725-6.4188-1.2725s1.8219 4.7217 3.5769 5.9871c1.3225.9543 3.0459 1.3332 4.2.9293.218 1.2689.386 2.5557.509 3.8603-1.744-1.469-5.8555-2.6093-5.8555-2.6093s.721 5.0185 2.1524 6.652c1.0587 1.2152 2.6241 1.9694 3.8301 1.8658-.046 1.3011-.127 2.595-.274 3.871-1.2664-1.8694-5.2021-4.0533-5.2021-4.0533s-.4396 5.0542.5839 6.9772c.8195 1.5512 2.3283 2.6665 3.5912 2.6879-.2781 1.1295-.5735 2.259-.9323 3.3563-.9004-2.0302-4.8009-4.8361-4.8009-4.8361s-1.0164 4.9684-.218 6.9986c.5768 1.4977 1.7867 2.7452 2.9403 3.0704-.4713 1.0116-.9532 2.0088-1.4913 2.9739-.51-2.1589-3.8337-5.6547-3.8337-5.6547s-1.9098 4.686-1.5053 6.8342c.2884 1.5656 1.2275 3.0025 2.2861 3.5673-.6858.9436-1.3928 1.8694-2.1489 2.7594-.0352-2.2054-2.7012-6.3838-2.7012-6.3838s-2.761 4.2249-2.775 6.4052c-.0071 1.6228.6542 3.2456 1.6143 3.989-.83.7685-1.6847 1.5191-2.564 2.2269.0036-.0429.0176-.0751.0211-.118.2568-2.1696-1.9555-6.7198-1.9555-6.7198s-3.2217 3.8675-3.482 6.0335c-.1864 1.4941.2322 3.0168.9884 3.9104-1.0904.6756-2.1983 1.3118-3.3448 1.8908.116-.3145.218-.6362.2813-.9686.4115-2.1482-1.4772-6.8414-1.4772-6.8414s-3.489 3.628-3.897 5.7762c-.2849 1.4727.0282 3.0239.7175 3.9712-2.0083.7685-4.0939 1.3618-6.2183 1.8515-1.2486-4.182-5.033-7.2489-9.5526-7.2489-4.523 0-8.3039 3.0597-9.5525 7.2489-2.1244-.4826-4.2101-1.083-6.2184-1.8515.6894-.9508 1.0024-2.4985.7175-3.9712-.4079-2.1517-3.8969-5.7762-3.8969-5.7762s-1.8923 4.6932-1.4772 6.8414c.0633.3324.1653.6541.2813.9686-1.1466-.579-2.258-1.2152-3.3448-1.8908.7492-.8936 1.1712-2.4163.9883-3.9104-.2602-2.166-3.4855-6.0335-3.4855-6.0335s-2.2087 4.543-1.952 6.7198c.0035.0429.0176.0751.0211.118-.8828-.7078-1.7339-1.4548-2.564-2.2269.9567-.7434 1.6214-2.3698 1.6109-3.989-.0106-2.1875-2.775-6.4052-2.775-6.4052s-2.6625 4.1784-2.6977 6.3838c-.7527-.89-1.4631-1.8194-2.149-2.7594 1.0587-.5648 1.9942-2.0017 2.2862-3.5673.408-2.1553-1.5054-6.8342-1.5054-6.8342s-3.3237 3.4994-3.8337 5.6547c-.5346-.9687-1.0199-1.9623-1.4877-2.9739 1.1571-.3288 2.36-1.5727 2.9403-3.0704.7949-2.0374-.2216-6.9986-.2216-6.9986s-3.904 2.8023-4.8044 4.8361c-.3587-1.1044-.6542-2.2268-.9285-3.3563 1.2591-.0214 2.768-1.1367 3.5875-2.6879 1.0235-1.9266.5873-6.9772.5873-6.9772s-3.9427 2.1839-5.2053 4.0533c-.1477-1.2724-.2286-2.5664-.2744-3.871 1.2029.1036 2.7715-.6541 3.8302-1.8658 1.4315-1.6335 2.1525-6.652 2.1525-6.652s-4.108 1.1403-5.856 2.6093c.116-1.301.2884-2.5914.5099-3.8603 1.1501.4039 2.8771.025 4.1995-.9293 1.7551-1.2618 3.5734-5.9871 3.5734-5.9871s-4.4597.1751-6.4188 1.2725c.2955-.9651.6191-1.9123.9743-2.8452 1.0551.5969 2.7926.5612 4.2487-.1037 1.9661-.89 4.6426-5.1721 4.6426-5.1721s-4.3612-.6827-6.5102-.0179c.5768-1.0866 1.1888-2.1482 1.8465-3.1776.9145.8507 2.7047 1.151 4.3261.7042 2.0786-.5755 5.3812-4.3751 5.3812-4.3751s-3.9884-1.3046-6.2499-1.0759c.8124-.9758 1.6495-1.9301 2.5358-2.8344.7245 1.0044 2.3952 1.6728 4.0412 1.6156 2.149-.0787 6.2183-3.0168 6.2183-3.0168s-3.6895-2.259-5.9334-2.50206c.8371-.6684 1.7058-1.29392 2.5886-1.90156.8617-.05719 1.7938-.3074 2.6097-.80781 1.843-1.1295 3.9955-5.701129 3.9955-5.701129s-4.9838-.19659-6.8268.929339c-1.1712.71487-2.0223 1.86582-2.3389 2.94171-1.1536.81496-2.265 1.6871-3.3412 2.59142.0211-.25021.0316-.50041.0246-.75062-.0809-2.18752-2.972-6.3230668-2.972-6.3230668s-2.5886 4.3357168-2.5077 6.5232368c.0598 1.63706.8054 3.25268 1.8078 3.93894-1.3084 1.3511-2.5394 2.7773-3.6965 4.2678-.0352-.2752-.0352-.554-.1056-.8221-.5662-2.1124-4.3085-5.46878-4.3085-5.46878s-1.5475 4.82188-.9777 6.93068c.415 1.5513 1.4666 2.9167 2.5745 3.385-.8898 1.4118-1.7163 2.8666-2.4655 4.3786-.0703-.2359-.1055-.479-.204-.7042-.8828-1.9945-5.09634-4.7182-5.09634-4.7182s-.78784 5.0042.09848 6.9987c.67881 1.537 2.01884 2.7522 3.22876 2.956-.53111 1.4011-1.01296 2.8309-1.42095 4.2928-.10903-.2002-.17937-.4146-.3095-.6005-1.24507-1.7872-5.89474-3.6316-5.89474-3.6316s.17586 5.0685 1.42444 6.8521c.94963 1.3511 2.46552 2.2876 3.68245 2.2805-.32357 1.8586-.55922 3.7459-.67177 5.6689-.17234-.2037-.31654-.4289-.5135-.6076-1.61086-1.4548-6.54893-2.1768-6.54893-2.1768s1.30134 4.8969 2.91571 6.3481c1.24156 1.1188 2.95441 1.6656 4.1432 1.3404.07035 1.8551.23565 3.678.49944 5.4795-.17586-.1215-.32358-.2752-.51351-.3789-1.89574-1.0401-6.868983-.5898-6.868983-.5898s2.377593 4.4608 4.273333 5.501c1.35762.7399 2.99309.8936 4.08692.4468.35172 1.4083.75267 2.7844 1.22045 4.1463-.15827-.0822-.29192-.2002-.45723-.2645-2.00125-.8043-6.88657.2359-6.88657.2359s2.87351 4.1427 4.87828 4.9433c1.55458.6291 3.36236.5326 4.36476-.2001.6366 1.3725 1.3225 2.7129 2.0716 4.0176-.1583-.0465-.32-.0965-.4818-.1251-2.1138-.4111-6.72481 1.5298-6.72481 1.5298s3.58401 3.5315 5.70131 3.9425c1.6636.3217 3.4362-.1287 4.2733-1.0616.9039 1.2546 1.8571 2.4592 2.87 3.628-.1372-.0071-.2708-.0286-.408-.025-2.1525.0143-6.3062 2.8273-6.3062 2.8273s4.1854 2.7559 6.3379 2.7487c1.6601-.0143 3.3096-.7685 3.9814-1.8158.9707.9079 1.9661 1.7801 3.0036 2.6058-.0914.0071-.1829-.0143-.2743-.0036-2.1384.2681-5.9405 3.5493-5.9405 3.5493s4.4703 2.2483 6.6052 1.9803c1.7692-.2217 3.4222-1.2868 3.8478-2.5164.83.5218 1.646 1.0759 2.5077 1.5513-2.1138.8936-4.9697 3.728-4.9697 3.728s4.6145 1.9052 6.7248 1.4798c1.7058-.336 3.2428-1.4726 3.6332-2.6879 2.5464 1.0259 5.2018 1.8301 7.9311 2.4163.3693 5.2865 4.6638 9.4685 9.9571 9.4685s9.5877-4.182 9.957-9.4685c2.7293-.5862 5.3848-1.3904 7.9347-2.4163.3834 1.2153 1.9239 2.3519 3.6297 2.6879 2.1138.4254 6.7318-1.4941 6.7318-1.4941s-2.8559-2.8344-4.9697-3.728c.8617-.479 1.6777-1.0187 2.5077-1.5513.4256 1.226 2.0822 2.2983 3.8478 2.5164 2.1349.268 6.6087-1.9803 6.6087-1.9803s-3.8056-3.2812-5.9405-3.5529c-.0879-.0071-.1829.0143-.2743.0072 1.0375-.8257 2.0329-1.6979 3.0036-2.6058.6718 1.0473 2.3214 1.8015 3.985 1.8158 2.1489.0143 6.3379-2.7487 6.3379-2.7487s-4.1538-2.813-6.3063-2.8273c-.1372 0-.2708.0179-.408.025 1.013-1.1581 1.9661-2.3734 2.87-3.628.8371.933 2.6097 1.3869 4.2734 1.0616 2.117-.4074 5.701-3.9425 5.701-3.9425s-4.611-1.9409-6.7245-1.5334c-.1618.0322-.3236.0786-.4819.1287.7492-1.2975 1.435-2.6379 2.0714-4.0176.999.7327 2.807.8256 4.365.2001 2.005-.8006 4.878-4.9469 4.878-4.9469s-4.885-1.0366-6.886-.2323c-.166.0715-.299.1823-.458.2645.468-1.3547.866-2.7416 1.221-4.1463 1.083.4504 2.715.2967 4.076-.4432z" fill="#5fcbff"/></svg>